<svg width="348" height="46" viewBox="0 0 348 46" fill="none" xmlns="http://www.w3.org/2000/svg">
<path fill-rule="evenodd" clip-rule="evenodd" d="M34.8602 13.4116C38.1018 13.4116 40.7297 10.7837 40.7297 7.54211C40.7297 4.30047 38.1018 1.67261 34.8602 1.67261C31.6185 1.67261 28.9907 4.30047 28.9907 7.54211C28.9907 10.7837 31.6185 13.4116 34.8602 13.4116Z" fill="#8055FA"/>
<path fill-rule="evenodd" clip-rule="evenodd" d="M34.86 27.4945C38.1016 27.4945 40.7295 24.867 40.7295 21.6258C40.7295 18.3846 38.1016 15.7571 34.86 15.7571C31.6184 15.7571 28.9905 18.3846 28.9905 21.6258C28.9905 24.867 31.6184 27.4945 34.86 27.4945Z" fill="#7550FB"/>
<path fill-rule="evenodd" clip-rule="evenodd" d="M34.86 42.1028C38.1016 42.1028 40.7295 39.4749 40.7295 36.2333C40.7295 32.9916 38.1016 30.3638 34.86 30.3638C31.6184 30.3638 28.9905 32.9916 28.9905 36.2333C28.9905 39.4749 31.6184 42.1028 34.86 42.1028Z" fill="#6A4AFC"/>
<path d="M20.2527 27.4943C23.4939 27.4943 26.1214 24.8667 26.1214 21.6255C26.1214 18.3843 23.4939 15.7568 20.2527 15.7568C17.0115 15.7568 14.384 18.3843 14.384 21.6255C14.384 24.8667 17.0115 27.4943 20.2527 27.4943Z" fill="#6045FD"/>
<path d="M20.2527 27.4943C23.4939 27.4943 26.1214 24.8667 26.1214 21.6255C26.1214 18.3843 23.4939 15.7568 20.2527 15.7568C17.0115 15.7568 14.384 18.3843 14.384 21.6255C14.384 24.8667 17.0115 27.4943 20.2527 27.4943Z" stroke="#A0A3BD"/>
<path fill-rule="evenodd" clip-rule="evenodd" d="M20.2521 42.1025C23.4933 42.1025 26.1208 39.4747 26.1208 36.233C26.1208 32.9914 23.4933 30.3635 20.2521 30.3635C17.0109 30.3635 14.3834 32.9914 14.3834 36.233C14.3834 39.4747 17.0109 42.1025 20.2521 42.1025Z" fill="#553FFE"/>
<path fill-rule="evenodd" clip-rule="evenodd" d="M6.16833 42.1028C9.40996 42.1028 12.0378 39.4749 12.0378 36.2333C12.0378 32.9916 9.40996 30.3638 6.16833 30.3638C2.92669 30.3638 0.298828 32.9916 0.298828 36.2333C0.298828 39.4749 2.92669 42.1028 6.16833 42.1028Z" fill="#4A3AFF"/>
<path d="M49.5623 35L58.2663 11.2H63.1623L71.8663 35H67.2423L65.3383 29.492H56.0563L54.1183 35H49.5623ZM57.2463 26.092H64.1483L60.6803 16.198L57.2463 26.092ZM74.9321 35V11.2H90.4701V14.702H79.2841V21.23H89.4501V24.63H79.2841V31.498H90.4701V35H74.9321ZM105.74 35.408C103.36 35.408 101.275 34.8867 99.4844 33.844C97.7164 32.8013 96.3224 31.362 95.3024 29.526C94.305 27.6673 93.8064 25.5253 93.8064 23.1C93.8064 20.6747 94.305 18.544 95.3024 16.708C96.3224 14.8493 97.7164 13.3987 99.4844 12.356C101.275 11.3133 103.36 10.792 105.74 10.792C108.098 10.792 110.172 11.3133 111.962 12.356C113.753 13.3987 115.147 14.8493 116.144 16.708C117.142 18.544 117.64 20.6747 117.64 23.1C117.64 25.5253 117.142 27.6673 116.144 29.526C115.147 31.362 113.753 32.8013 111.962 33.844C110.172 34.8867 108.098 35.408 105.74 35.408ZM105.74 31.498C108.007 31.498 109.809 30.75 111.146 29.254C112.506 27.758 113.186 25.7067 113.186 23.1C113.186 20.4933 112.506 18.442 111.146 16.946C109.809 15.45 108.007 14.702 105.74 14.702C103.474 14.702 101.66 15.45 100.3 16.946C98.9404 18.442 98.2604 20.4933 98.2604 23.1C98.2604 25.7067 98.9404 27.758 100.3 29.254C101.66 30.75 103.474 31.498 105.74 31.498ZM121.483 35V11.2H125.835L137.021 27.962V11.2H141.373V35H137.021L125.835 18.272V35H121.483Z" fill="#170F49"/>
<path d="M164.866 35.408C162.464 35.408 160.401 34.898 158.678 33.878C156.956 32.8353 155.63 31.396 154.7 29.56C153.771 27.7013 153.306 25.5593 153.306 23.134C153.306 20.7087 153.771 18.5667 154.7 16.708C155.63 14.8493 156.956 13.3987 158.678 12.356C160.401 11.3133 162.464 10.792 164.866 10.792C167.722 10.792 170.057 11.506 171.87 12.934C173.706 14.3393 174.851 16.3227 175.304 18.884H170.51C170.216 17.592 169.581 16.5833 168.606 15.858C167.654 15.11 166.385 14.736 164.798 14.736C162.6 14.736 160.877 15.484 159.63 16.98C158.384 18.476 157.76 20.5273 157.76 23.134C157.76 25.7407 158.384 27.792 159.63 29.288C160.877 30.7613 162.6 31.498 164.798 31.498C166.385 31.498 167.654 31.158 168.606 30.478C169.581 29.7753 170.216 28.812 170.51 27.588H175.304C174.851 30.036 173.706 31.9513 171.87 33.334C170.057 34.7167 167.722 35.408 164.866 35.408ZM184.869 35.408C183.418 35.408 182.228 35.1813 181.299 34.728C180.369 34.252 179.678 33.6287 179.225 32.858C178.771 32.0873 178.545 31.2373 178.545 30.308C178.545 28.744 179.157 27.4747 180.381 26.5C181.605 25.5253 183.441 25.038 185.889 25.038H190.173V24.63C190.173 23.474 189.844 22.624 189.187 22.08C188.529 21.536 187.713 21.264 186.739 21.264C185.855 21.264 185.084 21.4793 184.427 21.91C183.769 22.318 183.361 22.93 183.203 23.746H178.953C179.066 22.522 179.474 21.4567 180.177 20.55C180.902 19.6433 181.831 18.952 182.965 18.476C184.098 17.9773 185.367 17.728 186.773 17.728C189.175 17.728 191.068 18.3287 192.451 19.53C193.833 20.7313 194.525 22.4313 194.525 24.63V35H190.819L190.411 32.28C189.912 33.1867 189.209 33.9347 188.303 34.524C187.419 35.1133 186.274 35.408 184.869 35.408ZM185.855 32.008C187.101 32.008 188.065 31.6 188.745 30.784C189.447 29.968 189.889 28.9593 190.071 27.758H186.365C185.209 27.758 184.381 27.9733 183.883 28.404C183.384 28.812 183.135 29.322 183.135 29.934C183.135 30.5913 183.384 31.1013 183.883 31.464C184.381 31.8267 185.039 32.008 185.855 32.008ZM198.678 35V18.136H202.52L202.894 20.414C203.438 19.598 204.152 18.952 205.036 18.476C205.942 17.9773 206.985 17.728 208.164 17.728C210.77 17.728 212.618 18.7367 213.706 20.754C214.318 19.8247 215.134 19.088 216.154 18.544C217.196 18 218.33 17.728 219.554 17.728C221.752 17.728 223.441 18.3853 224.62 19.7C225.798 21.0147 226.388 22.9413 226.388 25.48V35H222.036V25.888C222.036 24.4373 221.752 23.3267 221.186 22.556C220.642 21.7853 219.792 21.4 218.636 21.4C217.457 21.4 216.505 21.8307 215.78 22.692C215.077 23.5533 214.726 24.7547 214.726 26.296V35H210.374V25.888C210.374 24.4373 210.09 23.3267 209.524 22.556C208.957 21.7853 208.084 21.4 206.906 21.4C205.75 21.4 204.809 21.8307 204.084 22.692C203.381 23.5533 203.03 24.7547 203.03 26.296V35H198.678ZM230.52 42.48V18.136H234.396L234.872 20.55C235.416 19.802 236.13 19.1447 237.014 18.578C237.92 18.0113 239.088 17.728 240.516 17.728C242.102 17.728 243.519 18.1133 244.766 18.884C246.012 19.6547 246.998 20.7087 247.724 22.046C248.449 23.3833 248.812 24.902 248.812 26.602C248.812 28.302 248.449 29.8207 247.724 31.158C246.998 32.4727 246.012 33.5153 244.766 34.286C243.519 35.034 242.102 35.408 240.516 35.408C239.246 35.408 238.136 35.17 237.184 34.694C236.232 34.218 235.461 33.5493 234.872 32.688V42.48H230.52ZM239.598 31.6C240.98 31.6 242.125 31.1353 243.032 30.206C243.938 29.2767 244.392 28.0753 244.392 26.602C244.392 25.1287 243.938 23.916 243.032 22.964C242.125 22.012 240.98 21.536 239.598 21.536C238.192 21.536 237.036 22.012 236.13 22.964C235.246 23.8933 234.804 25.0947 234.804 26.568C234.804 28.0413 235.246 29.254 236.13 30.206C237.036 31.1353 238.192 31.6 239.598 31.6ZM258.513 35.408C257.063 35.408 255.873 35.1813 254.943 34.728C254.014 34.252 253.323 33.6287 252.869 32.858C252.416 32.0873 252.189 31.2373 252.189 30.308C252.189 28.744 252.801 27.4747 254.025 26.5C255.249 25.5253 257.085 25.038 259.533 25.038H263.817V24.63C263.817 23.474 263.489 22.624 262.831 22.08C262.174 21.536 261.358 21.264 260.383 21.264C259.499 21.264 258.729 21.4793 258.071 21.91C257.414 22.318 257.006 22.93 256.847 23.746H252.597C252.711 22.522 253.119 21.4567 253.821 20.55C254.547 19.6433 255.476 18.952 256.609 18.476C257.743 17.9773 259.012 17.728 260.417 17.728C262.82 17.728 264.713 18.3287 266.095 19.53C267.478 20.7313 268.169 22.4313 268.169 24.63V35H264.463L264.055 32.28C263.557 33.1867 262.854 33.9347 261.947 34.524C261.063 35.1133 259.919 35.408 258.513 35.408ZM259.499 32.008C260.746 32.008 261.709 31.6 262.389 30.784C263.092 29.968 263.534 28.9593 263.715 27.758H260.009C258.853 27.758 258.026 27.9733 257.527 28.404C257.029 28.812 256.779 29.322 256.779 29.934C256.779 30.5913 257.029 31.1013 257.527 31.464C258.026 31.8267 258.683 32.008 259.499 32.008ZM274.668 15.518C273.875 15.518 273.218 15.28 272.696 14.804C272.198 14.328 271.948 13.7273 271.948 13.002C271.948 12.2767 272.198 11.6873 272.696 11.234C273.218 10.758 273.875 10.52 274.668 10.52C275.462 10.52 276.108 10.758 276.606 11.234C277.128 11.6873 277.388 12.2767 277.388 13.002C277.388 13.7273 277.128 14.328 276.606 14.804C276.108 15.28 275.462 15.518 274.668 15.518ZM272.492 35V18.136H276.844V35H272.492ZM288.527 29.968C287.711 29.968 286.951 29.8773 286.249 29.696L284.991 30.954C285.376 31.158 285.897 31.328 286.555 31.464C287.212 31.6 288.277 31.736 289.751 31.872C291.995 32.076 293.627 32.6087 294.647 33.47C295.667 34.3313 296.177 35.5213 296.177 37.04C296.177 38.0373 295.905 38.978 295.361 39.862C294.817 40.7687 293.978 41.494 292.845 42.038C291.711 42.6047 290.261 42.888 288.493 42.888C286.09 42.888 284.152 42.4347 282.679 41.528C281.205 40.644 280.469 39.3067 280.469 37.516C280.469 35.9973 281.205 34.6827 282.679 33.572C282.225 33.368 281.829 33.1527 281.489 32.926C281.171 32.6993 280.888 32.4613 280.639 32.212V31.43L283.597 28.302C282.282 27.146 281.625 25.6613 281.625 23.848C281.625 22.7147 281.897 21.6833 282.441 20.754C283.007 19.8247 283.801 19.088 284.821 18.544C285.841 18 287.076 17.728 288.527 17.728C289.479 17.728 290.363 17.864 291.179 18.136H297.571V20.788L294.681 20.992C295.134 21.8533 295.361 22.8053 295.361 23.848C295.361 24.9813 295.089 26.0127 294.545 26.942C294.001 27.8713 293.207 28.608 292.165 29.152C291.145 29.696 289.932 29.968 288.527 29.968ZM288.527 26.636C289.411 26.636 290.136 26.398 290.703 25.922C291.292 25.446 291.587 24.766 291.587 23.882C291.587 22.998 291.292 22.318 290.703 21.842C290.136 21.366 289.411 21.128 288.527 21.128C287.597 21.128 286.849 21.366 286.283 21.842C285.716 22.318 285.433 22.998 285.433 23.882C285.433 24.766 285.716 25.446 286.283 25.922C286.849 26.398 287.597 26.636 288.527 26.636ZM284.447 37.074C284.447 37.9127 284.832 38.536 285.603 38.944C286.396 39.3747 287.359 39.59 288.493 39.59C289.581 39.59 290.465 39.3633 291.145 38.91C291.825 38.4793 292.165 37.89 292.165 37.142C292.165 36.53 291.938 36.02 291.485 35.612C291.054 35.204 290.181 34.9547 288.867 34.864C287.937 34.796 287.076 34.694 286.283 34.558C285.625 34.9207 285.149 35.3173 284.855 35.748C284.583 36.1787 284.447 36.6207 284.447 37.074ZM300.744 35V18.136H304.586L304.926 20.992C305.448 19.9947 306.196 19.2013 307.17 18.612C308.168 18.0227 309.335 17.728 310.672 17.728C312.758 17.728 314.378 18.3853 315.534 19.7C316.69 21.0147 317.268 22.9413 317.268 25.48V35H312.916V25.888C312.916 24.4373 312.622 23.3267 312.032 22.556C311.443 21.7853 310.525 21.4 309.278 21.4C308.054 21.4 307.046 21.8307 306.252 22.692C305.482 23.5533 305.096 24.7547 305.096 26.296V35H300.744Z" fill="#6F6C90"/>
</svg>
